<?xml version="1.0" standalone="no"?>
<!DOCTYPE svg PUBLIC "-//W3C//DTD SVG 20010904//EN"
 "http://www.w3.org/TR/2001/REC-SVG-20010904/DTD/svg10.dtd">
<svg version="1.0" xmlns="http://www.w3.org/2000/svg"
 width="335.000000pt" height="335.000000pt" viewBox="0 0 335.000000 335.000000"
 preserveAspectRatio="xMidYMid meet">
<metadata>
Created by potrace 1.14, written by Peter Selinger 2001-2017
</metadata>
<g transform="translate(0.000000,335.000000) scale(0.100000,-0.100000)"
fill="#000000" stroke="none">
<path d="M30 2758 c0 -3 20 -41 45 -82 25 -42 45 -81 45 -86 0 -6 5 -10 10
-10 6 0 10 -4 10 -8 0 -7 44 -90 70 -132 40 -65 130 -223 130 -230 0 -5 6 -15
13 -22 7 -7 46 -71 86 -143 41 -71 114 -198 162 -282 49 -83 97 -167 108 -185
10 -18 51 -89 90 -156 39 -68 71 -128 71 -133 0 -5 5 -9 10 -9 6 0 10 -4 10
-9 0 -8 183 -330 297 -522 26 -44 63 -90 87 -108 70 -54 109 -59 426 -57 267
2 288 4 325 23 50 26 106 81 129 124 9 19 26 50 38 69 12 19 31 52 42 72 39
69 129 223 183 315 30 51 54 96 54 100 0 5 11 22 25 40 13 17 24 34 24 36 0 2
63 113 140 247 77 133 140 245 140 248 0 3 6 13 14 21 7 9 29 46 49 82 20 37
61 108 92 159 30 51 55 94 55 96 0 2 31 56 69 121 181 309 241 414 241 421 0
8 -1101 8 -1116 0 -5 -3 -22 -8 -38 -12 -67 -16 -123 -76 -193 -203 -15 -28
-52 -92 -81 -143 -56 -97 -58 -109 -21 -162 11 -14 19 -28 19 -31 0 -3 18 -35
40 -71 22 -36 40 -70 40 -76 0 -5 5 -10 10 -10 6 0 10 -4 10 -10 0 -5 22 -47
49 -92 27 -46 48 -86 47 -89 0 -4 6 -15 15 -25 16 -20 87 -143 102 -179 44
-102 56 -275 28 -375 -60 -210 -259 -391 -461 -417 -200 -26 -363 28 -502 169
-43 43 -78 85 -78 92 0 8 -3 16 -7 18 -12 5 -44 78 -63 145 -14 46 -17 87 -15
155 2 51 5 100 8 108 2 8 7 29 12 45 9 34 59 134 105 210 16 28 33 57 37 65 3
8 33 59 65 113 32 55 58 101 58 103 0 2 16 28 35 58 19 30 35 58 35 61 0 3 11
23 25 45 14 22 25 44 25 50 0 12 -190 343 -213 370 -22 29 -82 67 -122 80 -31
10 -170 14 -593 14 -303 1 -552 -2 -552 -6z"/>
<path d="M1657 2138 c-8 -13 -54 -93 -102 -178 -49 -85 -95 -163 -103 -172 -8
-10 -12 -18 -9 -18 3 0 -12 -28 -34 -62 -79 -126 -102 -193 -101 -290 1 -196
177 -359 379 -353 102 3 177 37 250 111 37 38 102 144 88 144 -3 0 -1 9 5 20
13 23 16 109 6 159 -7 35 -45 132 -56 141 -3 3 -30 48 -59 100 -30 52 -62 109
-71 125 -10 17 -33 57 -52 90 -19 33 -49 83 -66 111 -18 28 -32 56 -32 61 0 6
-6 16 -14 22 -12 10 -17 8 -29 -11z"/>
</g>
</svg>
